<?xml version="1.0" standalone="no"?>
<!DOCTYPE svg PUBLIC "-//W3C//DTD SVG 20010904//EN"
 "http://www.w3.org/TR/2001/REC-SVG-20010904/DTD/svg10.dtd">
<svg version="1.0" xmlns="http://www.w3.org/2000/svg"
 width="912.000000pt" height="1428.000000pt" viewBox="0 0 912.000000 1428.000000"
 preserveAspectRatio="xMidYMid meet">

<g transform="translate(0.000000,1428.000000) scale(0.100000,-0.100000)"
fill="#000000" stroke="none">
<path d="M4310 14013 c-19 -1 -87 -8 -150 -14 -435 -41 -934 -175 -1353 -364
-267 -120 -593 -321 -832 -511 -147 -117 -429 -402 -539 -544 -377 -486 -588
-1005 -646 -1589 -13 -135 -13 -438 1 -577 112 -1137 871 -1976 2274 -2514
432 -166 867 -286 1640 -455 658 -144 1177 -295 1649 -480 976 -381 1673 -882
2079 -1492 75 -111 191 -332 233 -441 39 -103 47 -76 35 115 -43 678 -293
1310 -737 1868 -120 150 -390 418 -554 549 -599 479 -1358 819 -2313 1036
-375 85 -835 216 -1145 326 -926 329 -1308 711 -1387 1384 -37 314 -4 607 100
885 95 252 220 448 420 654 189 195 350 311 599 432 l146 71 0 89 0 89 140 0
140 0 0 223 c0 190 3 235 20 301 26 104 63 169 135 242 66 67 115 96 215 128
l65 21 21 215 c12 118 24 248 28 288 l7 72 -128 -2 c-70 0 -144 -3 -163 -5z"/>
<path d="M4704 13978 c4 -24 17 -153 31 -286 14 -134 27 -247 30 -252 3 -4 20
-11 39 -14 111 -21 255 -135 311 -246 58 -114 58 -118 64 -390 l6 -255 138 -3
137 -3 0 -109 0 -110 88 -44 c263 -132 548 -376 746 -640 181 -240 327 -560
384 -841 35 -166 42 -290 42 -686 l0 -379 850 0 850 0 0 358 c0 375 -10 607
-35 807 -89 704 -336 1309 -746 1825 -107 136 -354 382 -494 494 -440 352
-963 595 -1549 720 -260 56 -591 96 -799 96 l-98 0 5 -42z"/>
<path d="M4609 13140 c-53 -9 -100 -40 -134 -89 l-30 -43 -3 -239 -3 -239 206
0 206 0 -3 244 -3 244 -31 38 c-16 21 -41 46 -55 56 -30 22 -103 36 -150 28z"/>
<path d="M3608 10948 c-47 -12 -113 -69 -138 -119 -19 -37 -20 -61 -20 -574
l0 -535 230 0 231 0 -3 533 c-3 592 -1 570 -73 640 -60 58 -141 78 -227 55z"/>
<path d="M4570 10945 c-52 -16 -103 -62 -131 -117 -18 -35 -19 -64 -19 -573
l0 -535 230 0 231 0 -3 533 c-3 592 -1 570 -73 640 -39 38 -109 67 -159 66
-17 0 -51 -7 -76 -14z"/>
<path d="M5548 10949 c-47 -14 -113 -71 -138 -120 -19 -37 -20 -61 -20 -574
l0 -535 230 0 231 0 -3 533 c-3 587 -1 569 -68 635 -18 18 -46 40 -62 48 -38
20 -122 26 -170 13z"/>
<path d="M506 9248 c-12 -106 -7 -377 9 -503 65 -494 273 -964 621 -1400 120
-150 390 -418 554 -549 298 -237 585 -419 960 -607 476 -238 1010 -434 1625
-598 480 -127 1096 -380 1425 -586 231 -144 479 -367 603 -542 216 -304 314
-704 287 -1166 -43 -722 -377 -1245 -992 -1553 -435 -218 -945 -315 -1578
-301 -453 11 -825 75 -1250 217 -648 216 -1227 571 -1744 1071 l-126 121 -49
-103 c-27 -57 -90 -189 -140 -293 l-91 -189 41 -71 c462 -781 1379 -1429 2466
-1741 637 -183 1343 -237 2093 -159 1503 155 2626 807 3115 1809 208 426 295
849 282 1370 -9 359 -60 622 -179 929 -338 869 -1155 1574 -2388 2061 -338
133 -814 279 -1190 365 -1116 254 -1967 538 -2676 893 -867 434 -1408 932
-1635 1505 -17 42 -32 78 -34 80 -1 1 -6 -25 -9 -60z"/>
</g>
</svg>
