<?xml version="1.0" encoding="utf-8"?>
<!-- Generator: Adobe Illustrator 16.0.0, SVG Export Plug-In . SVG Version: 6.00 Build 0)  -->
<!DOCTYPE svg PUBLIC "-//W3C//DTD SVG 1.1//EN" "http://www.w3.org/Graphics/SVG/1.1/DTD/svg11.dtd">
<svg version="1.1" id="Calque_1" xmlns="http://www.w3.org/2000/svg" xmlns:xlink="http://www.w3.org/1999/xlink" x="0px" y="0px"
     width="467.631px" height="157.388px" viewBox="0 0 467.631 157.388" enable-background="new 0 0 467.631 157.388"
     xml:space="preserve">
<g>
	<path fill-rule="evenodd" clip-rule="evenodd" fill="#FB0032" d="M442.868,80.604l20.763,0.025c0,0,0,46.933,0,70.568
		c-5.698,0-11.471,0-17.736,0c0-14.913,0-47.027,0-47.027l-0.921,2.056c0,0-2.541,5.739-3.775,8.624
		c-2.485,5.811-8.453,19.967-8.453,19.967l-12.669,0.01c0,0-1.686-4.006-3.56-8.334c-2.914-6.731-5.841-13.457-9.456-20.049
		c0,14.836,0,29.673,0,44.809c-5.79,0-17.328,0-17.328,0l0.02-3.291l-0.221-63.426v-3.931h21.436l1.223,2.918l13.164,29.392
		l1.474,2.858c0,0,6.165-13.305,9.027-19.713c1.945-4.358,5.87-13.058,5.87-13.058L442.868,80.604z"/>
    <path fill-rule="evenodd" clip-rule="evenodd" fill="#FB0032" d="M216.045,121.8c7.599,9.771,15.179,19.517,23.393,30.078
		c-6.133,0-16.71,0.084-16.71,0.084l-5.942-0.229c0,0-1.871-2.54-2.908-4.097c-3.83-5.749-8.227-11.12-12.381-16.651
		c-2.126-2.83-3.67-4.689-3.67-4.689s-4.501-0.025-8.354-0.025c0,8.313,0,16.704,0,25.381c-6.242,0-12.005,0-18.04,0
		c0-23.454,0-46.785,0-70.253c0.467-0.126,0.907-0.349,1.347-0.349c11.579,0.006,23.159-0.081,34.735,0.108
		c5.822,0.095,11.391,1.511,15.98,5.387c8.391,7.085,8.5,21.387,0.154,29.364C221.442,118.017,218.812,119.679,216.045,121.8z
		 M189.546,94.324c0,6.371,0,12.146,0,18.846c5.096-0.071,9.765-0.119,14.358-0.986c4.705-0.89,7.071-4.859,6.844-9.91
		c-0.208-4.579-2.486-7.317-7.604-7.853C198.716,93.957,194.203,94.324,189.546,94.324z"/>
    <path fill-rule="evenodd" clip-rule="evenodd" fill="#FB0032" d="M7.414,132.695c5.544,3.477,10.759,7.609,16.642,10.259
		c12.968,5.838,25.944,4.016,37.657-3.296c12.364-7.717,11.917-24.114-0.072-32.377c-6.173-4.253-13.133-6.079-20.294-7.56
		c-12.008-2.484-23.119-6.866-31.956-15.764C3.957,78.486,1.058,71.711,0,63.856c1.916,1.871,3.808,3.768,5.752,5.608
		C14.518,77.762,25.669,81,36.912,83.89c10.031,2.578,20.259,4.428,30.208,7.27c10.347,2.956,17.882,9.542,22.561,19.471
		c7.109,15.083-1.641,35.768-18.264,42.131c-23.018,8.81-44.032,4.878-63.093-10.438C4.064,138.9,4.04,137.557,7.414,132.695z"/>
    <path fill-rule="evenodd" clip-rule="evenodd" fill="#FB0032" d="M354.131,83.168c0,0,16.533,44.775,24.808,67.16
		c0.075,0.203,0.138,0.413,0.597,1.265c-5.69,0-18.813-0.093-18.813-0.093l-0.789-2.031l-3.602-9.729l-0.88-2.341l-2.286-0.015
		l-21.146-0.113l-2.651,0.003l-0.958,2.586l-3.219,9.483l-0.782,2.36h-2.125c0,0-10.159,0-15.996,0
		c1.155-3.398,2.106-6.399,3.191-9.35c7.123-19.379,21.363-58.14,21.363-58.14l1.202-3.44l21.157-0.013L354.131,83.168z
		 M342.483,99.107l-0.41,1.004c0,0-5.401,15.793-8.217,24.027c5.95,0,11.371,0,17.254,0
		C348.272,115.906,342.483,99.107,342.483,99.107z"/>
    <path fill-rule="evenodd" clip-rule="evenodd" fill="#FB0032" d="M247.509,151.558c0-23.698,0-46.947,0-70.436
		c16.977,0,33.742,0,50.736,0c0,4.463,0,8.701,0,13.342c-10.842,0-21.542,0-32.537,0c0,4.251,0,8.105,0,12.393
		c10.09,0,20.053,0,30.213,0c0,4.666,0,8.907,0,13.598c-10.049,0-20.012,0-30.229,0c0,5.984,0,11.525,0,17.443
		c10.846,0,21.54,0,32.561,0c0,4.702,0,9.037,0,13.66C281.381,151.558,264.604,151.558,247.509,151.558z"/>
    <path fill-rule="evenodd" clip-rule="evenodd" fill="#FB0032" d="M40.785,6.464c0.158,2.224,0.125,5.018,0.083,5.56
		c-0.625,0.083-1.976,1.042-2.625,1.583c-1.442,1.204-2.421,3.799-2.328,5.658c0.066,1.325,0.035,2.658-0.027,3.718
		c-1.188,0.562-2.66,1.558-4,2.406c-4.425,2.8-8.053,6.328-10.194,11.172c-4.418,9.997,0.813,21.949,11.277,25.218
		c5.209,1.627,10.66,2.519,16.035,3.567c10.256,2,20.316,4.512,28.47,11.559c7.666,6.625,12.741,14.909,14.8,25.093
		c-0.477-0.511-1.106-0.945-1.407-1.545c-4.404-8.745-12.23-13.604-20.95-16.228c-12.854-3.869-26.11-6.39-39.163-9.618
		C19.092,71.722,9.521,65.351,3.893,54.786C-1.929,43.858,0.795,33.065,8.13,23.652c6.957-8.928,16.056-14.84,27.418-16.812
		c1.055-0.183,2.126-0.304,3.195-0.371C39.311,6.435,40.029,6.383,40.785,6.464z"/>
    <path fill-rule="evenodd" clip-rule="evenodd" fill="#FB0032" d="M160.042,81.314c0,4.388,0,8.726,0,13.41
		c-7.263,0-14.264,0-21.801,0c0,1.715-0.001,3.093,0,4.47c0.011,16.354,0.1,49.059,0.1,49.059l-0.015,3.788
		c0,0-13.102-0.061-18.421-0.061c0-9.587,0-18.965,0-28.344c0-9.419,0-18.838,0-28.674c-7.361,0-14.457,0-21.9,0
		c0-4.724,0-9.04,0-13.648C118.629,81.314,139.207,81.314,160.042,81.314z"/>
    <path fill-rule="evenodd" clip-rule="evenodd" fill="#FB0032" d="M86.567,50.756c-6.92,0.311-12.571,0.565-18.553,0.833
		c-0.199-2.166-0.439-4.027-0.529-5.896c-0.495-10.272-5.133-17.552-14.94-21.43c-1.232-0.487-3-1.281-3-1.281
		s0.03-1.771,0.006-2.944c-0.163-8.119-5.1-8.337-5.1-8.337S44.28,7.965,44.3,6.421c0.776-0.208,2.621-0.133,3.86,0
		C62.993,8.015,75.443,13.293,81.289,28C84.048,34.942,84.771,42.693,86.567,50.756z"/>
    <path fill-rule="evenodd" clip-rule="evenodd" fill="#FB0032" d="M39.335,18.603c0.366-2.933,2.226-3.315,3.354-3.326
		c3.241-0.029,2.922,2.956,2.88,5.075c-0.042,2.115-0.973,2.626-2.794,2.632C39.514,22.994,39.335,21.357,39.335,18.603z"/>
    <path fill-rule="evenodd" clip-rule="evenodd" fill="#FB0032" d="M35.146,22.668"/>
</g>
    <path fill-rule="evenodd" clip-rule="evenodd" fill="#14ACE3" d="M43.146,19.624"/>
    <g>
	<path fill-rule="evenodd" clip-rule="evenodd" fill="#03FFF4" d="M446.868,76.56l20.763,0.025c0,0,0,46.933,0,70.568
		c-5.698,0-11.471,0-17.736,0c0-14.913,0-47.027,0-47.027l-0.921,2.056c0,0-2.541,5.739-3.775,8.624
		c-2.485,5.811-8.453,19.967-8.453,19.967l-12.669,0.01c0,0-1.686-4.006-3.56-8.334c-2.914-6.731-5.841-13.457-9.456-20.049
		c0,14.836,0,29.673,0,44.809c-5.79,0-17.328,0-17.328,0l0.02-3.291l-0.221-63.426V76.56h21.436l1.223,2.918l13.164,29.392
		l1.474,2.858c0,0,6.165-13.305,9.027-19.713c1.945-4.358,5.87-13.058,5.87-13.058L446.868,76.56z"/>
        <path fill-rule="evenodd" clip-rule="evenodd" fill="#03FFF4" d="M220.045,117.756c7.599,9.771,15.179,19.517,23.393,30.078
		c-6.133,0-16.71,0.084-16.71,0.084l-5.942-0.229c0,0-1.871-2.54-2.908-4.097c-3.83-5.749-8.227-11.12-12.381-16.651
		c-2.126-2.83-3.67-4.689-3.67-4.689s-4.501-0.025-8.354-0.025c0,8.313,0,16.704,0,25.381c-6.242,0-12.005,0-18.04,0
		c0-23.454,0-46.786,0-70.253c0.467-0.126,0.907-0.349,1.347-0.349c11.579,0.006,23.159-0.081,34.735,0.108
		c5.822,0.095,11.391,1.511,15.98,5.387c8.391,7.085,8.5,21.387,0.154,29.364C225.442,113.973,222.812,115.635,220.045,117.756z
		 M193.546,90.28c0,6.371,0,12.146,0,18.846c5.096-0.071,9.765-0.119,14.358-0.986c4.705-0.89,7.071-4.859,6.844-9.91
		c-0.208-4.579-2.486-7.317-7.604-7.853C202.716,89.913,198.203,90.28,193.546,90.28z"/>
        <path fill-rule="evenodd" clip-rule="evenodd" fill="#03FFF4" d="M11.414,128.651c5.544,3.477,10.759,7.609,16.642,10.259
		c12.968,5.838,25.944,4.016,37.657-3.296c12.364-7.717,11.917-24.114-0.072-32.376c-6.173-4.254-13.133-6.079-20.294-7.56
		c-12.008-2.484-23.119-6.866-31.956-15.764C7.957,74.442,5.058,67.667,4,59.813c1.916,1.871,3.808,3.768,5.752,5.608
		c8.766,8.297,19.917,11.535,31.16,14.425c10.031,2.578,20.259,4.428,30.208,7.27c10.347,2.956,17.882,9.542,22.561,19.471
		c7.109,15.083-1.641,35.768-18.264,42.131c-23.018,8.81-44.032,4.878-63.093-10.438C8.064,134.856,8.04,133.513,11.414,128.651z"/>
        <path fill-rule="evenodd" clip-rule="evenodd" fill="#03FFF4" d="M358.131,79.124c0,0,16.533,44.775,24.808,67.16
		c0.075,0.203,0.138,0.413,0.597,1.265c-5.69,0-18.813-0.093-18.813-0.093l-0.789-2.031l-3.602-9.729l-0.88-2.341l-2.286-0.015
		l-21.146-0.113l-2.651,0.003l-0.958,2.586l-3.219,9.483l-0.782,2.36h-2.125c0,0-10.159,0-15.996,0
		c1.155-3.398,2.106-6.399,3.191-9.35c7.123-19.379,21.363-58.14,21.363-58.14l1.202-3.44l21.157-0.013L358.131,79.124z
		 M346.483,95.063l-0.41,1.004c0,0-5.401,15.793-8.217,24.027c5.95,0,11.371,0,17.254,0
		C352.272,111.862,346.483,95.063,346.483,95.063z"/>
        <path fill-rule="evenodd" clip-rule="evenodd" fill="#03FFF4" d="M251.509,147.514c0-23.698,0-46.947,0-70.436
		c16.977,0,33.742,0,50.736,0c0,4.463,0,8.701,0,13.342c-10.842,0-21.542,0-32.537,0c0,4.251,0,8.105,0,12.393
		c10.09,0,20.053,0,30.213,0c0,4.666,0,8.907,0,13.598c-10.049,0-20.012,0-30.229,0c0,5.984,0,11.525,0,17.443
		c10.846,0,21.54,0,32.561,0c0,4.702,0,9.037,0,13.66C285.381,147.514,268.604,147.514,251.509,147.514z"/>
        <path fill-rule="evenodd" clip-rule="evenodd" fill="#03FFF4" d="M44.785,2.42c0.158,2.224,0.125,5.018,0.083,5.56
		c-0.625,0.083-1.976,1.042-2.625,1.583c-1.442,1.204-2.421,3.799-2.328,5.658c0.066,1.325,0.035,2.658-0.027,3.718
		c-1.188,0.562-2.66,1.558-4,2.406c-4.425,2.8-8.053,6.328-10.194,11.172c-4.418,9.997,0.813,21.949,11.277,25.218
		c5.209,1.627,10.66,2.519,16.035,3.567c10.256,2,20.316,4.512,28.47,11.559c7.666,6.625,12.741,14.909,14.8,25.093
		c-0.477-0.511-1.106-0.945-1.407-1.545c-4.404-8.745-12.23-13.604-20.95-16.228c-12.854-3.869-26.11-6.39-39.163-9.618
		c-11.664-2.885-21.235-9.257-26.863-19.821C2.071,39.814,4.795,29.021,12.13,19.608c6.957-8.928,16.056-14.84,27.418-16.812
		c1.055-0.183,2.126-0.304,3.195-0.371C43.311,2.391,44.029,2.339,44.785,2.42z"/>
        <path fill-rule="evenodd" clip-rule="evenodd" fill="#03FFF4" d="M164.042,77.271c0,4.388,0,8.726,0,13.41
		c-7.263,0-14.264,0-21.801,0c0,1.715-0.001,3.093,0,4.47c0.011,16.354,0.1,49.059,0.1,49.059l-0.015,3.788
		c0,0-13.102-0.061-18.421-0.061c0-9.587,0-18.965,0-28.344c0-9.419,0-18.838,0-28.674c-7.361,0-14.457,0-21.9,0
		c0-4.724,0-9.04,0-13.648C122.629,77.271,143.207,77.271,164.042,77.271z"/>
        <path fill-rule="evenodd" clip-rule="evenodd" fill="#03FFF4" d="M90.567,46.712c-6.92,0.311-12.571,0.565-18.553,0.833
		c-0.199-2.166-0.439-4.027-0.529-5.896c-0.495-10.272-5.133-17.552-14.94-21.43c-1.232-0.487-3-1.281-3-1.281
		s0.03-1.771,0.006-2.944c-0.163-8.119-5.1-8.337-5.1-8.337S48.28,3.921,48.3,2.377c0.776-0.208,2.621-0.133,3.86,0
		C66.993,3.971,79.443,9.25,85.289,23.956C88.048,30.898,88.771,38.649,90.567,46.712z"/>
        <path fill-rule="evenodd" clip-rule="evenodd" fill="#03FFF4" d="M43.335,14.559c0.366-2.933,2.226-3.315,3.354-3.326
		c3.241-0.029,2.922,2.956,2.88,5.075c-0.042,2.115-0.973,2.626-2.794,2.632C43.514,18.95,43.335,17.313,43.335,14.559z"/>
</g>
    <path fill-rule="evenodd" clip-rule="evenodd" fill="#FFFFFF" d="M444.868,77.872l20.763,0.025c0,0,0,46.933,0,70.568
	c-5.698,0-11.471,0-17.736,0c0-14.913,0-47.027,0-47.027l-0.921,2.056c0,0-2.541,5.739-3.775,8.624
	c-2.485,5.811-8.453,19.967-8.453,19.967l-12.669,0.01c0,0-1.686-4.006-3.56-8.334c-2.914-6.731-5.841-13.457-9.456-20.049
	c0,14.836,0,29.673,0,44.809c-5.79,0-17.328,0-17.328,0l0.02-3.291l-0.221-63.426v-3.931h21.436l1.223,2.918l13.164,29.392
	l1.474,2.858c0,0,6.165-13.305,9.027-19.713c1.945-4.358,5.87-13.058,5.87-13.058L444.868,77.872z"/>
    <path fill-rule="evenodd" clip-rule="evenodd" fill="#FFFFFF" d="M218.045,119.067c7.599,9.771,15.179,19.517,23.393,30.078
	c-6.133,0-16.71,0.084-16.71,0.084L218.785,149c0,0-1.871-2.54-2.908-4.097c-3.83-5.749-8.226-11.12-12.381-16.651
	c-2.125-2.83-3.669-4.689-3.669-4.689s-4.501-0.025-8.354-0.025c0,8.313,0,16.704,0,25.381c-6.242,0-12.005,0-18.04,0
	c0-23.454,0-46.786,0-70.253c0.467-0.126,0.907-0.349,1.347-0.349c11.579,0.006,23.159-0.081,34.736,0.108
	c5.821,0.095,11.39,1.511,15.98,5.387c8.391,7.085,8.5,21.387,0.153,29.364C223.442,115.284,220.812,116.946,218.045,119.067z
	 M191.546,91.592c0,6.371,0,12.146,0,18.846c5.096-0.071,9.765-0.119,14.358-0.986c4.706-0.89,7.072-4.859,6.844-9.91
	c-0.208-4.579-2.486-7.317-7.604-7.853C200.716,91.224,196.203,91.592,191.546,91.592z"/>
    <path fill-rule="evenodd" clip-rule="evenodd" fill="#FFFFFF" d="M9.414,129.963c5.544,3.477,10.759,7.609,16.642,10.259
	c12.968,5.838,25.944,4.016,37.657-3.296c12.364-7.717,11.917-24.114-0.072-32.376c-6.173-4.254-13.133-6.079-20.294-7.56
	c-12.008-2.484-23.119-6.866-31.956-15.764C5.957,75.753,3.058,68.979,2,61.124c1.916,1.871,3.808,3.768,5.752,5.608
	c8.766,8.297,19.917,11.535,31.16,14.425c10.031,2.578,20.259,4.428,30.208,7.27c10.347,2.956,17.882,9.542,22.561,19.471
	c7.109,15.083-1.641,35.768-18.264,42.131c-23.018,8.81-44.032,4.878-63.093-10.438C6.064,136.168,6.04,134.824,9.414,129.963z"/>
    <path fill-rule="evenodd" clip-rule="evenodd" fill="#FFFFFF" d="M356.131,80.436c0,0,16.533,44.775,24.808,67.16
	c0.075,0.203,0.138,0.413,0.597,1.265c-5.69,0-18.813-0.093-18.813-0.093l-0.789-2.031l-3.602-9.729l-0.88-2.341l-2.286-0.015
	l-21.146-0.113l-2.651,0.003l-0.958,2.586l-3.219,9.483l-0.782,2.36h-2.125c0,0-10.159,0-15.996,0
	c1.155-3.398,2.106-6.399,3.191-9.35c7.123-19.379,21.363-58.14,21.363-58.14l1.202-3.44l21.157-0.013L356.131,80.436z
	 M344.483,96.375l-0.41,1.004c0,0-5.401,15.793-8.217,24.027c5.95,0,11.371,0,17.254,0
	C350.272,113.174,344.483,96.375,344.483,96.375z"/>
    <path fill-rule="evenodd" clip-rule="evenodd" fill="#FFFFFF" d="M249.509,148.825c0-23.698,0-46.947,0-70.436
	c16.977,0,33.742,0,50.736,0c0,4.463,0,8.701,0,13.342c-10.842,0-21.542,0-32.537,0c0,4.251,0,8.105,0,12.393
	c10.09,0,20.053,0,30.213,0c0,4.666,0,8.907,0,13.598c-10.049,0-20.012,0-30.229,0c0,5.984,0,11.525,0,17.443
	c10.846,0,21.54,0,32.561,0c0,4.702,0,9.037,0,13.66C283.381,148.825,266.604,148.825,249.509,148.825z"/>
    <path fill-rule="evenodd" clip-rule="evenodd" fill="#FFFFFF" d="M42.785,3.732c0.158,2.224,0.125,5.018,0.083,5.56
	c-0.625,0.083-1.976,1.042-2.625,1.583c-1.442,1.204-2.421,3.799-2.328,5.658c0.066,1.325,0.035,2.658-0.027,3.718
	c-1.188,0.562-2.66,1.558-4,2.406c-4.425,2.8-8.053,6.328-10.194,11.172c-4.418,9.997,0.813,21.949,11.277,25.218
	c5.209,1.627,10.66,2.519,16.035,3.567c10.256,2,20.316,4.512,28.47,11.559c7.666,6.625,12.741,14.909,14.8,25.093
	c-0.477-0.511-1.106-0.945-1.407-1.545c-4.404-8.745-12.23-13.604-20.95-16.228c-12.854-3.869-26.11-6.39-39.163-9.618
	C21.092,68.99,11.521,62.618,5.893,52.054C0.071,41.125,2.795,30.333,10.13,20.92c6.957-8.928,16.056-14.84,27.418-16.812
	c1.055-0.183,2.126-0.304,3.195-0.371C41.311,3.702,42.029,3.651,42.785,3.732z"/>
    <path fill-rule="evenodd" clip-rule="evenodd" fill="#FFFFFF" d="M162.042,78.582c0,4.388,0,8.726,0,13.41
	c-7.263,0-14.264,0-21.801,0c0,1.715-0.001,3.093,0,4.47c0.011,16.354,0.1,49.059,0.1,49.059l-0.015,3.788
	c0,0-13.102-0.061-18.421-0.061c0-9.587,0-18.965,0-28.344c0-9.419,0-18.838,0-28.674c-7.361,0-14.457,0-21.9,0
	c0-4.724,0-9.04,0-13.648C120.629,78.582,141.207,78.582,162.042,78.582z"/>
    <path fill-rule="evenodd" clip-rule="evenodd" fill="#FFFFFF" d="M88.567,48.024c-6.92,0.311-12.571,0.565-18.553,0.833
	c-0.199-2.166-0.439-4.027-0.529-5.896c-0.495-10.272-5.133-17.552-14.94-21.43c-1.232-0.487-3-1.281-3-1.281
	s0.03-1.771,0.006-2.944c-0.163-8.119-5.1-8.337-5.1-8.337S46.28,5.232,46.3,3.688c0.776-0.208,2.621-0.133,3.86,0
	c14.833,1.594,27.284,6.873,33.129,21.579C86.048,32.209,86.771,39.96,88.567,48.024z"/>
    <path fill-rule="evenodd" clip-rule="evenodd" fill="#FFFFFF" d="M41.335,15.87c0.366-2.933,2.226-3.315,3.354-3.326
	c3.241-0.029,2.922,2.956,2.88,5.075c-0.042,2.115-0.973,2.626-2.794,2.632C41.514,20.261,41.335,18.625,41.335,15.87z"/>
    <path fill-rule="evenodd" clip-rule="evenodd" fill="#FFFFFF" d="M37.146,19.936"/>
    <path fill="none" stroke="#FFFFFF" stroke-width="2.5" stroke-miterlimit="10" d="M97.701,14.2L86.661,3h41.84l16.8,16.8V59h-14
	V22.6l-8.4-8.4H97.701z M114.501,59h-14V19.8h14V59z M145.301,14.2L134.101,3h25.2l16.8,16.8V59h-14V22.6l-8.4-8.4H145.301z"/>
    <path fill="none" stroke="#FFFFFF" stroke-width="2.5" stroke-miterlimit="10" d="M180.021,14.2L169.221,3h78l-11.2,11.2H180.021z
	 M182.82,59h50.4l-11.2-11.2h-25.2V36.6h14l11.2-11.2h-25.2v-5.6h-14V59z"/>
    <path fill="none" stroke="#FFFFFF" stroke-width="2.5" stroke-miterlimit="10" d="M239.94,19.8h16.8l-16.8,16.8l11.2,11.2h19.6
	l5.6-5.6l-5.6-5.6h-11.199l11.199-11.2h8.4l16.799,16.8L279.141,59h-33.6L223.14,36.6L239.94,19.8z M299.859,14.2L289.451,3H256.74
	l-11.199,11.2H299.859z"/>
    <path fill="none" stroke="#FFFFFF" stroke-width="2.5" stroke-miterlimit="10" d="M316.659,14.2h-16.8L288.979,3h33.28l56,56
	h-16.801L316.659,14.2z M302.659,19.8V59h14V45h25.2l-11.2-11.2h-14v-14H302.659z"/>
</svg>