<?xml version="1.0" standalone="no"?>
<!DOCTYPE svg PUBLIC "-//W3C//DTD SVG 20010904//EN"
 "http://www.w3.org/TR/2001/REC-SVG-20010904/DTD/svg10.dtd">
<svg version="1.0" xmlns="http://www.w3.org/2000/svg"
 width="776.000000pt" height="401.000000pt" viewBox="0 0 776.000000 401.000000"
 preserveAspectRatio="xMidYMid meet">

<g transform="translate(0.000000,401.000000) scale(0.100000,-0.100000)"
fill="#ffffff" stroke="none">
<path d="M1569 3433 c-7 -7 -9 -27 -5 -45 3 -18 7 -39 8 -45 1 -7 4 -11 6 -8
3 3 16 -9 28 -27 22 -30 35 -62 48 -119 3 -14 33 -52 67 -85 139 -134 189
-185 189 -195 0 -5 9 -22 20 -38 12 -15 22 -38 24 -52 1 -14 6 -30 10 -37 4
-7 12 -59 17 -115 8 -87 13 -105 32 -119 20 -16 71 -24 121 -19 10 0 26 -4 34
-11 13 -10 14 -10 8 0 -5 9 7 12 52 12 32 0 62 3 66 8 4 4 13 7 19 7 25 0 37
115 22 226 -11 90 -14 105 -34 168 -10 34 -17 61 -15 61 2 0 -4 9 -14 20 -9
12 -17 24 -16 28 4 39 -207 272 -247 272 -5 0 -8 3 -6 8 3 4 1 16 -4 27 -7 19
-8 19 -8 -3 l-1 -22 -40 25 c-33 21 -156 68 -210 80 -8 2 -15 4 -15 6 0 1 -33
3 -73 4 -50 1 -76 -2 -83 -12z"/>
<path d="M1449 3426 c-2 -3 -48 -6 -102 -7 -53 -2 -97 -6 -97 -10 0 -4 -15
-11 -32 -14 -67 -15 -198 -90 -268 -152 -14 -13 -29 -23 -35 -23 -10 0 -45
-35 -45 -45 0 -3 -15 -25 -34 -49 -31 -41 -86 -145 -90 -170 -1 -6 -4 -15 -7
-21 -3 -5 -6 -25 -8 -44 -1 -19 -6 -39 -10 -45 -12 -14 -18 -127 -8 -143 4 -6
4 -18 1 -27 -3 -8 -2 -21 2 -28 9 -14 11 -24 17 -74 2 -18 16 -52 30 -78 14
-25 21 -46 15 -46 -6 0 1 -10 16 -21 15 -12 25 -27 22 -35 -3 -7 0 -11 7 -8 7
2 23 -12 36 -31 13 -19 28 -35 33 -35 5 0 6 -5 2 -12 -4 -6 -3 -8 4 -4 6 3 20
-6 31 -20 12 -15 21 -24 21 -20 0 4 13 -2 29 -13 16 -12 34 -21 40 -21 6 0 11
-4 11 -9 0 -9 179 -91 199 -91 7 0 10 -4 7 -9 -3 -5 0 -9 7 -8 6 0 21 -1 32
-2 17 -1 18 -3 5 -12 -12 -8 -11 -9 7 -4 11 3 74 -8 138 -25 65 -16 128 -30
141 -30 16 0 24 -6 24 -17 0 -13 3 -14 8 -5 9 13 68 6 78 -9 3 -5 9 -7 13 -5
4 3 27 -1 52 -8 42 -13 66 -22 136 -52 17 -8 36 -14 43 -14 6 0 9 -4 5 -9 -3
-5 0 -13 6 -17 8 -5 9 -3 4 6 -6 9 -2 10 16 5 13 -4 30 -12 38 -18 7 -6 20
-12 29 -13 8 -2 28 -12 43 -23 16 -12 32 -21 37 -21 5 0 25 -12 44 -27 19 -16
47 -37 63 -48 40 -29 80 -72 132 -142 26 -35 51 -63 56 -63 10 0 5 82 -5 91
-4 3 -9 18 -12 35 -2 16 -8 40 -14 54 -5 14 -16 39 -23 55 -7 17 -12 33 -11
38 1 4 -2 7 -8 7 -5 0 -10 5 -10 11 0 13 -47 77 -77 105 -13 12 -23 26 -23 31
0 5 -11 16 -25 23 -15 8 -23 20 -20 27 2 8 1 12 -4 8 -5 -3 -16 2 -24 10 -9 8
-20 15 -26 15 -6 0 -11 3 -11 8 0 4 -31 25 -70 46 -38 22 -66 44 -63 49 3 6 1
7 -5 3 -9 -5 -78 20 -92 34 -3 3 -9 5 -15 6 -32 1 -65 18 -65 33 0 10 -3 12
-8 5 -8 -13 -132 12 -143 29 -4 5 -12 6 -18 3 -6 -4 -16 -4 -23 0 -7 4 -23 9
-37 10 -13 2 -29 8 -34 13 -6 6 -21 11 -33 11 -42 0 -276 99 -291 123 -4 6 -1
7 7 2 9 -5 11 -4 6 4 -4 6 -11 9 -15 6 -19 -11 -77 62 -105 135 -32 81 -15
256 32 320 10 14 21 32 25 42 3 9 34 39 69 67 117 94 168 145 179 181 19 57
49 120 58 120 5 0 11 8 14 18 4 9 13 32 21 50 9 18 11 30 6 27 -6 -3 -10 -1
-10 4 0 11 -32 16 -41 7z"/>
<path d="M2455 3238 c4 -13 16 -47 27 -75 11 -29 20 -56 21 -60 0 -5 7 -19 14
-33 10 -19 10 -26 0 -32 -8 -5 -7 -8 6 -8 16 0 19 -8 21 -57 1 -10 7 -23 15
-29 7 -6 14 -23 14 -37 0 -15 4 -27 9 -27 6 0 4 -8 -3 -17 -8 -9 -9 -14 -3
-10 14 8 38 -37 30 -58 -3 -9 -2 -14 3 -11 5 3 12 -1 15 -10 8 -22 8 -26 -4
-19 -5 3 -10 1 -10 -4 0 -6 6 -11 14 -11 12 0 30 -43 31 -75 0 -5 8 -18 18
-28 10 -10 15 -22 12 -28 -4 -5 -2 -15 4 -22 5 -7 13 -28 16 -46 3 -18 7 -38
8 -44 1 -7 6 -15 10 -18 5 -3 10 -12 11 -20 2 -8 10 -31 20 -51 9 -21 16 -42
16 -48 0 -6 27 -10 66 -10 57 0 67 3 71 20 3 11 9 20 14 20 5 0 9 10 9 23 0
13 3 27 8 31 4 4 7 11 7 14 0 4 5 21 12 37 6 17 26 71 44 120 18 50 38 93 43
97 6 4 8 8 4 8 -11 0 34 124 48 133 7 4 11 14 7 22 -3 9 0 21 6 29 6 7 8 16 4
19 -3 4 -1 7 6 7 6 0 11 6 10 13 -2 6 6 30 17 52 l19 40 3 -373 2 -373 62 3
62 3 4 455 c2 277 0 465 -6 480 -9 23 -16 25 -71 28 -67 4 -105 -4 -96 -19 4
-5 -1 -9 -10 -9 -9 0 -13 -5 -9 -11 3 -6 0 -15 -7 -20 -9 -6 -10 -9 -2 -9 8 0
8 -8 -3 -28 -7 -16 -16 -39 -18 -53 -2 -13 -5 -26 -6 -29 -2 -3 -2 -8 -1 -12
0 -5 -3 -8 -9 -8 -6 0 -9 -3 -8 -7 5 -14 -45 -128 -61 -141 -11 -9 -11 -11 -2
-6 11 5 13 3 8 -10 -4 -10 -7 -25 -7 -34 0 -15 -2 -15 -11 -2 -9 13 -10 12 -5
-3 5 -17 -20 -96 -34 -107 -4 -3 -7 -12 -7 -21 0 -9 -10 -38 -22 -64 -12 -26
-20 -50 -17 -52 8 -9 -23 -63 -37 -63 -8 0 -7 -4 3 -11 13 -9 13 -10 0 -6 -8
2 -21 21 -29 43 -9 21 -19 41 -23 42 -5 2 -6 8 -3 13 3 4 -1 22 -10 39 -9 18
-11 30 -5 30 6 0 2 9 -9 21 -11 12 -17 27 -14 35 3 8 1 14 -4 14 -5 0 -15 21
-23 48 -16 56 -14 50 -29 87 -7 16 -10 37 -8 47 3 11 0 18 -9 18 -17 0 -18 17
-1 23 8 4 7 6 -3 6 -18 1 -44 51 -27 51 9 0 9 2 1 8 -7 4 -20 35 -31 70 -11
34 -23 59 -28 55 -4 -5 -5 -3 -1 4 3 6 -2 25 -11 41 -16 26 -24 29 -81 31 -63
2 -64 2 -57 -21z"/>
<path d="M3546 3238 c-4 -20 -4 -43 3 -81 0 -4 121 -6 269 -5 l267 3 -1 28
c-1 15 -2 37 -3 50 l-1 22 -265 3 -264 3 -5 -23z"/>
<path d="M5490 3238 c0 -9 -4 -20 -10 -23 -5 -3 -10 -15 -10 -26 0 -10 -5 -19
-12 -19 -6 0 -9 -3 -5 -6 3 -4 -2 -23 -12 -43 -11 -20 -19 -40 -20 -46 -1 -20
-45 -130 -54 -136 -5 -3 -8 -8 -6 -10 7 -12 -27 -79 -41 -79 -12 0 -12 -2 -2
-9 11 -6 7 -22 -17 -76 -17 -37 -31 -74 -31 -81 0 -8 -4 -14 -10 -14 -5 0 -7
-7 -4 -15 4 -8 1 -15 -5 -15 -6 0 -10 -3 -9 -7 3 -12 -33 -115 -49 -140 -8
-12 -15 -26 -15 -30 -2 -28 -22 -63 -36 -63 -13 0 -14 -2 -4 -9 12 -7 11 -14
-2 -39 -29 -56 -23 -62 50 -62 36 0 63 4 60 8 -3 5 6 27 19 50 13 24 19 39 12
35 -7 -4 -7 0 2 10 7 9 10 17 6 17 -4 0 -1 10 7 23 8 12 22 43 32 69 10 26 21
47 24 47 4 -1 12 -1 17 0 6 1 126 2 267 2 165 0 259 3 263 10 4 5 -1 21 -9 34
-9 14 -12 25 -6 25 6 0 2 10 -10 22 -11 12 -20 29 -20 38 0 9 -9 33 -20 54
-10 22 -17 43 -14 47 3 5 0 9 -5 9 -6 0 -11 6 -11 13 0 12 -56 160 -82 217 -6
14 -12 28 -14 33 -1 4 -3 9 -4 12 -1 3 -3 8 -5 13 -3 12 -17 46 -30 76 -7 16
-11 36 -7 44 3 10 1 13 -5 9 -7 -4 -14 4 -17 20 -6 27 -8 28 -76 28 -59 0 -70
-3 -70 -17z m71 -195 c3 -27 9 -47 18 -56 6 -6 11 -19 11 -28 0 -10 9 -34 21
-53 12 -20 18 -36 15 -36 -3 0 8 -30 24 -66 17 -36 28 -70 25 -74 -3 -5 -1
-10 4 -12 5 -1 13 -16 16 -31 l7 -28 -156 2 c-86 1 -156 6 -156 10 0 5 5 9 12
9 6 0 9 3 5 6 -5 6 37 128 52 149 4 6 13 28 20 50 7 22 16 49 21 60 5 11 16
39 26 63 16 38 33 55 35 35z"/>
<path d="M1518 3238 c-26 -22 -29 -47 -8 -68 17 -17 23 -18 39 -8 10 6 18 16
16 22 -2 6 -6 23 -9 39 -7 30 -15 33 -38 15z"/>
<path d="M4370 3175 c-18 -19 -26 -22 -33 -13 -7 10 -8 9 -4 -2 5 -18 -27 -63
-38 -52 -3 4 -6 3 -4 -3 1 -5 -10 -35 -24 -65 -15 -30 -27 -64 -27 -76 0 -11
-3 -24 -7 -28 -10 -10 -15 -34 -17 -88 -1 -26 -5 -50 -8 -54 -4 -3 -2 -19 4
-36 8 -23 8 -36 -1 -51 -10 -15 -10 -17 0 -12 9 6 10 1 6 -16 -4 -13 -9 -35
-12 -49 -5 -21 -4 -22 4 -5 8 17 10 18 15 4 4 -9 8 -27 9 -40 2 -13 11 -41 20
-63 9 -21 17 -41 17 -44 0 -3 10 -16 22 -29 15 -16 17 -23 7 -23 -7 0 3 -11
24 -25 20 -14 37 -29 37 -34 0 -13 109 -67 169 -85 61 -18 228 -21 301 -6 25
6 71 15 103 21 l57 11 0 197 0 196 -57 -1 c-82 -1 -91 -7 -84 -52 8 -51 7
-222 -2 -248 -10 -27 -52 -35 -172 -30 -104 3 -163 28 -221 93 -39 43 -78 118
-70 132 4 5 1 11 -6 13 -8 3 -13 43 -16 120 -6 161 13 244 75 328 32 43 43 64
34 69 -6 4 -9 16 -5 27 5 16 4 16 -5 4 -10 -13 -13 -13 -22 2 -20 35 -44 39
-69 13z"/>
<path d="M4445 3060 c-3 -5 -1 -10 4 -10 6 0 11 5 11 10 0 6 -2 10 -4 10 -3 0
-8 -4 -11 -10z"/>
<path d="M1256 3034 c-5 -14 -4 -15 9 -4 17 14 19 20 6 20 -5 0 -12 -7 -15
-16z"/>
<path d="M1111 2844 c0 -11 3 -14 6 -6 3 7 2 16 -1 19 -3 4 -6 -2 -5 -13z"/>
<path d="M3543 2826 c-6 -20 -8 -36 -4 -36 4 0 7 -10 7 -22 l-1 -23 234 -3
c129 -1 238 1 242 5 4 5 5 27 2 51 l-6 42 -227 0 c-161 0 -229 3 -232 11 -2 6
-9 -5 -15 -25z"/>
<path d="M4191 2814 c0 -11 3 -14 6 -6 3 7 2 16 -1 19 -3 4 -6 -2 -5 -13z"/>
<path d="M1296 2769 c2 -4 -1 -9 -8 -11 -17 -6 -17 -158 1 -191 16 -30 29 -33
55 -14 16 11 18 27 17 97 -2 91 -15 126 -49 126 -11 0 -19 -3 -16 -7z"/>
<path d="M1506 2767 c-3 -6 -9 -27 -15 -46 -15 -45 -14 -114 1 -129 9 -9 9
-12 -2 -12 -23 0 32 -34 57 -36 12 0 22 2 21 5 0 3 0 11 1 16 5 26 2 157 -3
182 -5 21 -13 29 -32 31 -13 1 -26 -4 -28 -11z"/>
<path d="M1723 2768 c-25 -39 -30 -61 -28 -114 2 -33 4 -61 5 -64 3 -7 7 -23
8 -37 2 -17 50 -12 65 5 6 8 10 27 9 43 -1 18 3 29 10 29 8 0 9 3 3 8 -11 7
-11 10 -13 71 -3 54 -39 90 -59 59z"/>
<path d="M1961 2714 c0 -11 3 -14 6 -6 3 7 2 16 -1 19 -3 4 -6 -2 -5 -13z"/>
<path d="M645 2324 c4 -38 8 -79 9 -91 1 -11 4 -19 9 -16 4 2 7 -2 7 -11 0
-14 28 -80 54 -125 8 -13 43 -55 78 -94 34 -39 62 -75 60 -79 -1 -4 5 -8 13
-8 16 0 133 -76 147 -95 5 -7 8 -7 8 0 0 6 3 6 8 -1 9 -13 71 -44 89 -44 7 0
13 -7 13 -15 0 -9 6 -12 15 -9 8 4 15 1 15 -7 0 -7 3 -10 6 -6 9 8 117 -34
132 -52 9 -11 12 -11 12 -2 0 10 3 11 13 2 8 -6 16 -8 19 -5 4 3 20 -2 37 -10
17 -9 34 -15 38 -14 15 3 98 -24 108 -35 6 -7 19 -13 30 -14 40 -3 104 -30
117 -48 4 -5 8 -6 8 -2 0 5 13 0 29 -9 17 -10 27 -22 24 -27 -3 -6 -1 -7 5 -3
12 7 107 -59 107 -75 0 -5 10 -16 23 -24 12 -9 22 -22 22 -30 0 -7 7 -20 15
-28 8 -8 17 -25 19 -38 3 -13 11 -46 17 -72 14 -62 -2 -191 -32 -249 -31 -61
-61 -98 -72 -91 -6 3 -7 1 -3 -5 15 -25 -166 -129 -206 -118 -10 2 -16 0 -13
-5 11 -16 -51 -24 -195 -23 -152 1 -175 2 -200 11 -8 3 -22 7 -30 8 -37 7 -67
15 -85 24 -11 5 -46 19 -77 31 -32 12 -58 27 -58 32 0 5 -5 6 -10 3 -6 -3 -10
-2 -10 3 0 6 -12 14 -27 20 -16 5 -66 39 -112 76 -46 37 -89 65 -95 63 -6 -1
-21 -24 -34 -49 -23 -45 -23 -47 -6 -80 14 -28 37 -61 73 -103 12 -15 62 -58
99 -85 17 -13 32 -31 32 -39 0 -14 1 -14 10 -1 9 14 14 7 11 -13 -1 -5 3 -6 8
-2 15 8 61 -24 62 -44 0 -9 3 -11 5 -5 5 12 44 7 44 -5 0 -4 6 -8 13 -8 6 -1
37 -11 67 -23 115 -45 200 -61 365 -67 151 -5 265 6 359 34 14 4 16 2 11 -8
-6 -9 -2 -8 11 2 29 25 82 40 88 26 3 -7 5 -6 5 3 1 8 31 28 69 45 37 16 69
32 72 35 3 3 21 17 40 30 19 13 40 31 46 39 7 8 16 11 24 6 8 -5 11 -4 7 2 -4
6 2 18 12 27 10 10 21 14 23 9 3 -4 3 -3 2 4 -2 6 8 24 21 39 86 100 140 336
108 474 -8 37 -9 56 -2 61 7 4 4 9 -5 12 -9 4 -15 10 -15 14 3 14 -20 66 -65
147 -23 42 -112 136 -156 166 -12 8 -32 22 -44 31 -69 52 -287 153 -358 166
-16 3 -28 10 -28 15 0 5 -3 7 -8 4 -8 -5 -101 17 -142 34 -14 6 -38 12 -55 15
-60 9 -270 74 -273 85 -2 5 -7 8 -11 5 -16 -9 -214 73 -206 86 3 4 -3 6 -12 5
-10 -2 -44 14 -75 35 -31 22 -59 39 -62 39 -20 0 -154 137 -182 185 -6 10 -16
21 -24 23 -10 4 -11 -9 -5 -64z"/>
<path d="M3548 2379 c-2 -5 -2 -28 0 -50 l4 -39 279 0 c153 0 279 3 280 8 0 4
1 26 2 50 l2 42 -282 0 c-189 0 -282 -3 -285 -11z"/>
<path d="M2495 1632 c-10 -26 -5 -80 8 -91 17 -14 763 -13 790 1 14 7 17 19
15 51 l-3 42 -402 5 c-330 4 -404 3 -408 -8z"/>
<path d="M4550 1640 l-264 -5 -3 -42 c-1 -24 3 -45 8 -49 11 -7 519 -8 525 -1
3 3 4 27 2 53 l-3 49 -265 -5z"/>
<path d="M5974 1641 c-2 -2 1 -9 6 -16 5 -6 11 -20 13 -31 2 -10 9 -30 16 -42
7 -13 10 -26 7 -29 -3 -4 -1 -12 4 -18 16 -19 59 -153 52 -160 -4 -3 -2 -9 4
-13 12 -8 50 -104 125 -316 21 -60 36 -113 33 -117 -3 -5 -1 -9 4 -9 6 0 21
-34 33 -75 l24 -75 67 0 c66 0 66 0 73 30 4 17 11 30 17 30 6 0 8 6 5 14 -3 7
0 19 6 25 6 6 7 11 3 11 -5 0 -3 6 3 14 7 8 14 22 16 32 3 17 105 293 122 334
3 8 7 17 8 20 1 3 6 20 10 38 4 17 12 32 17 32 5 0 6 5 3 10 -3 6 -1 10 5 10
6 0 9 4 5 9 -3 5 -1 12 4 15 4 3 11 20 15 37 3 18 9 30 11 27 3 -3 6 -172 5
-376 l0 -370 65 -4 c36 -1 65 0 65 5 0 10 0 946 0 955 0 4 -37 6 -82 6 l-83
-2 -24 -68 c-14 -38 -27 -71 -30 -74 -3 -3 -7 -16 -9 -30 -1 -13 -7 -27 -13
-31 -6 -3 -10 -10 -9 -15 0 -5 -1 -18 -4 -29 -3 -11 -6 -22 -7 -25 0 -3 -5
-11 -11 -17 -6 -7 -7 -13 -3 -13 4 0 0 -11 -9 -25 -9 -13 -18 -32 -20 -42 -1
-10 -6 -25 -9 -33 -3 -8 -27 -73 -53 -145 -26 -71 -54 -139 -63 -149 -9 -11
-11 -16 -4 -13 7 5 9 0 6 -13 -10 -36 -30 -17 -24 23 0 4 -3 7 -8 7 -5 0 -12
13 -16 30 -4 16 -10 30 -14 30 -4 0 -7 14 -6 30 1 17 -1 28 -4 25 -4 -5 -47
97 -54 130 -2 6 -5 15 -8 20 -7 11 -30 80 -33 98 -1 7 -8 22 -14 35 -7 12 -10
26 -7 31 3 5 0 11 -5 13 -6 2 -12 14 -12 28 -1 14 -6 27 -10 30 -4 3 -9 17
-10 30 -2 14 -6 27 -9 30 -3 3 -15 32 -26 65 l-20 60 -67 5 c-37 3 -70 3 -72
1z"/>
<path d="M3578 1634 c-9 -15 1 -87 13 -95 6 -3 45 -7 87 -8 58 -1 78 -5 89
-19 8 -9 11 -11 7 -3 -5 10 -1 11 17 6 29 -9 82 -62 74 -75 -3 -5 -1 -11 5
-15 15 -9 12 -80 -5 -121 -15 -37 -51 -73 -72 -74 -7 0 -13 -4 -13 -9 0 -11
-86 -30 -150 -34 -41 -2 -45 -5 -51 -32 -4 -17 -7 -21 -8 -11 0 11 -4 16 -7
13 -9 -9 16 -67 30 -68 6 -1 26 0 43 1 18 1 42 -1 52 -5 19 -6 141 -177 141
-196 0 -5 4 -9 8 -9 9 0 92 -126 92 -141 0 -5 5 -9 11 -9 6 0 8 -7 5 -16 -3
-8 -2 -12 3 -9 6 3 13 -1 18 -9 6 -10 31 -15 88 -17 89 -3 92 0 50 56 -14 17
-22 35 -17 39 4 4 2 6 -5 4 -15 -4 -116 140 -107 154 4 6 3 8 -3 5 -10 -6 -38
26 -87 103 -16 25 -32 47 -35 50 -4 3 -10 13 -14 22 -5 13 5 24 41 44 59 34
89 70 119 146 24 59 26 83 11 168 -12 66 -61 117 -141 147 -47 17 -281 31
-289 17z"/>
<path d="M5264 1615 c-3 -14 -11 -25 -17 -25 -6 0 -8 -3 -5 -6 7 -6 -29 -113
-43 -130 -5 -6 -6 -14 -2 -17 3 -4 1 -7 -6 -7 -7 0 -9 -4 -6 -10 3 -5 2 -10
-4 -10 -5 0 -12 -13 -16 -30 -4 -16 -12 -30 -18 -30 -8 0 -7 -3 2 -9 11 -7 10
-11 -5 -20 -14 -8 -15 -11 -4 -11 10 0 11 -3 4 -8 -6 -4 -17 -24 -23 -44 -7
-21 -17 -38 -21 -38 -5 0 -7 -7 -4 -15 4 -8 1 -15 -5 -15 -6 0 -10 -3 -10 -7
4 -25 -2 -43 -13 -37 -8 5 -9 2 -5 -9 8 -20 -11 -77 -25 -77 -6 0 -8 -7 -4
-15 3 -8 -1 -21 -9 -29 -8 -7 -12 -16 -9 -19 4 -3 3 -11 -1 -17 -6 -9 -10 -9
-16 1 -5 9 -7 3 -5 -16 2 -17 -3 -39 -10 -51 -8 -11 -11 -24 -8 -27 9 -9 -15
-36 -29 -33 -7 1 -9 1 -4 -1 4 -3 7 -11 7 -18 0 -14 -30 -85 -40 -95 -3 -3 -6
-20 -8 -39 -3 -28 -1 -33 13 -27 9 3 37 6 61 6 32 0 44 4 44 15 0 8 5 15 12
15 6 0 9 3 5 6 -5 5 36 124 51 149 4 5 7 12 8 15 0 3 6 17 14 33 l13 27 279 0
278 0 -21 41 c-17 34 -18 43 -7 50 10 7 8 9 -7 9 -17 0 -17 2 -5 10 13 8 12
10 -3 10 -11 0 -15 5 -11 11 3 6 2 14 -3 18 -5 3 -27 53 -48 111 -21 58 -44
108 -49 112 -6 4 -7 8 -1 8 5 0 4 5 -3 12 -7 7 -12 21 -12 33 0 12 -5 26 -10
31 -14 14 -61 144 -52 144 4 0 1 4 -5 8 -7 4 -14 17 -17 27 -14 65 -14 65 -87
65 -65 0 -69 -1 -75 -25z m71 -185 c-4 -6 1 -22 10 -36 26 -41 46 -104 32
-104 -6 0 -2 -7 10 -15 11 -8 24 -27 28 -42 3 -16 20 -61 36 -101 16 -41 29
-75 29 -78 0 -2 -70 -4 -156 -4 -121 0 -155 3 -151 13 3 6 24 62 47 122 23 61
46 114 51 120 5 5 9 16 9 25 0 21 43 110 53 110 4 0 5 -5 2 -10z"/>
<path d="M2836 1414 c-9 -23 -7 -734 2 -734 72 -5 122 -3 122 2 0 5 0 170 0
368 0 198 0 364 0 369 0 4 -26 9 -59 10 -46 1 -60 -2 -65 -15z"/>
<path d="M4287 1225 c-2 -5 -3 -28 -3 -50 l1 -40 235 0 235 0 0 45 0 45 -232
5 c-151 3 -234 1 -236 -5z"/>
<path d="M4285 762 c-7 -20 -6 -65 3 -77 4 -6 109 -10 277 -10 168 0 273 4
277 10 4 6 8 24 8 40 0 17 -4 35 -8 40 -4 6 -109 10 -279 10 -218 0 -274 -3
-278 -13z"/>
</g>
</svg>
